<?xml version="1.0" encoding="UTF-8"?>
<!DOCTYPE svg PUBLIC "-//W3C//DTD SVG 1.1//EN" "http://www.w3.org/Graphics/SVG/1.1/DTD/svg11.dtd">
<!-- Creator: CorelDRAW -->
<svg xmlns="http://www.w3.org/2000/svg" xml:space="preserve" width="85.8702mm" height="15.5233mm" version="1.1" style="shape-rendering:geometricPrecision; text-rendering:geometricPrecision; image-rendering:optimizeQuality; fill-rule:evenodd; clip-rule:evenodd"
viewBox="0 0 7182.37 1298.4"
 xmlns:xlink="http://www.w3.org/1999/xlink"
 xmlns:xodm="http://www.corel.com/coreldraw/odm/2003">
 <defs>
  <style type="text/css">
   <![CDATA[
    .str0 {stroke:#216A95;stroke-width:16.73;stroke-miterlimit:22.9256}
    .fil0 {fill:#216A95}
   ]]>
  </style>
 </defs>
 <g id="Camada_x0020_1">
  <metadata id="CorelCorpID_0Corel-Layer"/>
  <path class="fil0 str0" d="M3981.17 467.19c17.83,-52.13 51.05,-106.68 72.67,-156.8 16.44,-38.12 11.88,-54.33 49.53,-61.95 23.18,-4.69 69.17,10.4 83.59,21.98 95.46,76.7 -111.66,201.69 -205.79,196.76zm8.41 57.7c41.4,-32.09 51.99,-3.12 172.74,-83.76 68.77,-45.92 89.21,-55.57 100.04,-166.79 -30.54,-24.18 -54.7,-59.29 -107.95,-73.07 -36.05,-9.33 -138.24,-11.58 -149.08,22.87 -10.95,34.8 22.03,2.43 7.34,55.43 -7.27,26.21 -181.05,409.56 -179.72,450 0.74,22.5 23.85,75.39 66.21,-46.55 15.52,-44.68 32.8,-96.76 48.35,-131.33 40.77,61.37 159.69,208.99 239.84,206.66 2.94,-44.79 -5.72,-39.3 -43.44,-62.92 -65.88,-41.27 -115.7,-97.12 -154.33,-170.54z"/>
  <path class="fil0 str0" d="M5066.94 439.08c30.69,-137.88 123.95,-247.14 81.33,-267.17 -29.94,-1.78 -34.34,13.58 -49.24,48.97 -12.63,29.98 -20.67,48.01 -34.74,78.16 -21.8,46.72 -42.25,102.67 -58.02,154.4 -17.32,56.83 -34.08,113.11 -47.6,166.48 -31.02,122.46 -42.72,128.21 4.45,148.27 39.84,-75.6 41.8,-206.04 88.31,-284.74l221.63 -6.34c-8.67,52.69 -25.21,99.73 -38.24,149.69 -15.14,58.06 -47.78,88.06 10.21,110.47 8.99,-15.04 73.54,-241.37 82.85,-275.72 17.72,-65.44 96.53,-207.35 79.91,-255.9 -1.02,-0.33 9.28,-25.88 -33.64,-2.03 -13.35,7.42 -8.63,6.58 -17.05,28.08 -20.22,51.57 -31.17,118.23 -67.16,202.47l-223.01 4.9z"/>
  <path class="fil0 str0" d="M2071.93 479.85c16.7,-52.73 121.5,-207.23 154.5,-233.02 -27.94,236.86 -3.84,209.62 -86.59,224.17 -25.18,4.43 -41.61,7.06 -67.9,8.85zm169.74 241.95c0,-106.06 7.55,-195.12 17.16,-298.3 15.21,-163.36 41.28,-213.69 -43.89,-241.07 -59.28,32.34 -138.36,190.54 -179.7,263.48 -19.88,35.1 -31.65,34.64 -47.22,65.78l-73.59 150.61c-22.36,46.23 -23.39,42.89 -2.56,76.39 46.9,-25.47 66.72,-108.24 97.02,-161.58 35.1,-61.84 64.3,-60.15 189.18,-64.82 -8.97,212.69 -27.28,199.19 43.59,209.51z"/>
  <path class="fil0 str0" d="M5923.99 249.3c106.86,144.95 -106.27,494.1 -215.04,443.03 -82.18,-38.59 75.08,-461.37 215.04,-443.03zm-28.04 -56.3c-115.23,40.18 -175.37,130.48 -216.42,249.74 -23.78,69.09 -70.57,206.53 -8.2,262.66 181.35,163.21 506.49,-437.85 224.62,-512.4z"/>
  <path class="fil0 str0" d="M3306.42 447.39c10.93,-27.91 84.7,-140.1 109.4,-159.06 51.77,-39.72 154.88,-21.1 210.39,-55.88 -23.1,-60.97 -78.57,-24.67 -137.06,-15.62 -63.29,9.77 -83.34,-8.41 -129.68,37.93l-131.47 239.33c-128.19,309.67 295.73,257.96 330.88,112.34 -0.18,0.02 -431.59,205.55 -275.09,-112.61 52.8,19.91 101.99,1.51 143.86,-12.14 100.89,-32.88 111.82,-16.14 105.67,-62.21 -65.13,-26.78 -124.35,38.64 -226.9,27.92z"/>
  <path class="fil0 str0" d="M7106.64 603.6c-54.12,10.94 -55.83,33.68 -116.37,50.32 -55.17,15.17 -101.46,27.98 -161.36,14.34 -44.77,-50.54 -37.64,-109.27 2.81,-172.81 47.57,16.52 252.96,-19.97 248.25,-76.04 -7.57,-2.87 10.12,-16.03 -56.22,-2.19 -45.43,9.48 -133.87,43.75 -168.2,28.93 11.79,-30.67 76.54,-134.26 107.53,-157.26 33.69,-25 59.95,-23.98 103.47,-30.4 20.09,-2.97 42.64,-4.89 62.15,-8.46 61.69,-11.27 31.33,0.09 43.89,-28.88 -37.94,-42.54 -81.22,-12.47 -137.09,-4.19 -63.44,9.39 -79.09,-13.03 -128.67,38.87l-132.44 238.15c-131.47,311.82 304.78,257.96 332.27,109.61z"/>
  <path class="fil0 str0" d="M2921.72 200.09c-62.31,-10.41 -171.18,-13.41 -225.66,5.52 -0.45,0.79 -41.95,29.12 13.23,43.38 13.57,3.5 125.24,-26.56 215.42,1.73 38.12,115.31 -395.02,347.73 -384.36,476.73 67.17,11.68 297.66,4.26 343.76,-26.75 -36.33,-41.24 -61.73,-27.16 -135.7,-22.26 -50.9,3.36 -95.5,15.61 -146.26,9.55 18.74,-61.44 435.47,-345.03 380.21,-457.05 -8.63,-17.5 -5.66,-21.67 -60.65,-30.86z"/>
  <path class="fil0 str0" d="M1489.77 432.01c21.55,-43.26 36.13,-138.94 79.18,-161.3 42.01,-21.81 166.34,-9.96 219.59,-14.34 -15.57,-44.72 -21.5,-44.15 -78.02,-43.66 -39.51,0.34 -71.46,5.44 -103.23,7.65 -80.27,5.57 -23.29,-16.66 -90.39,9.1 -75.71,29.07 -39.71,-19.92 -81.97,36.7l37.56 17.36c44.7,14.13 -9.8,-8.3 23.46,5.13 -22.02,87.56 -54.3,145.52 -86.68,227.1 -48.68,122.62 -83.5,185.26 -26.15,207.46l88.37 -244.67c66.84,2.74 167.22,10.03 213.22,-19.68 -31.74,-72.67 -56.21,4.18 -194.94,-26.84z"/>
  <path class="fil0 str0" d="M6466.85 221.21c-9.3,55.07 -195.37,722.44 -296.03,558.13 -38.27,47.94 51.51,111.28 127.78,25.29 67.35,-75.93 228.49,-567.45 224.46,-615.86 -48.23,-16.77 -121.63,-10.86 -151.58,19.78 33.38,35.92 37.78,18.02 95.37,12.66z"/>
  <path class="fil0" d="M6148.35 1096.79c39.81,-22.06 14.51,-46.47 19.04,-107.65 19.21,16.01 29.25,31.19 43.48,56.32 40.89,72.21 12.91,43.02 48.52,56.89l54.57 -114.49c10.98,14.34 6.35,-6.4 14.36,31.56 20.92,99.11 -24.18,56.32 29.84,85.01 17.94,-29.04 -5.16,-165.4 -20.22,-188.24 -46.11,22.99 -55.76,91.18 -93.49,126.07 -16.53,-39.77 -23.27,-36.51 -44.95,-66.71 -37.65,-52.42 1.56,-50.67 -58.72,-61.27 -6.34,50.95 -16.85,144.47 7.58,182.5z"/>
  <path class="fil0" d="M1413.37 908.08c12.82,85.77 -18.18,104.44 -103.56,94.93 -17.51,-110.85 -23.42,-146.16 103.56,-94.93zm-117.41 202.67c17.41,-37.49 1.85,-59.75 24.51,-72.44 1.52,-0.85 188.14,-8.61 117.02,-141.75 -13.38,-19.28 0.82,-8.41 -21,-20.77l-73.43 -16.24c-119.06,-6.32 -70.21,14.33 -67.15,149.83 1.7,75.41 -10.95,79.84 20.05,101.37z"/>
  <path class="fil0" d="M5042.71 946.06c52.02,-4.29 80.86,-3.76 112.38,22.77 -17.56,41.66 -44.63,40.32 -112.72,44.32l0.33 -67.09zm120.04 73.44c10.86,-43.28 25.52,-10.49 22.76,-74.76 -45.07,-27.45 -99.73,-38.14 -165.61,-21.54 -7.85,18.19 -2.62,-18.92 -7.59,25.21 -0.42,3.66 -0.31,16.07 -0.26,20.14l20.47 133.33c43.44,-16.59 21.02,-12.83 27.88,-54.47 27.5,-12.94 60.77,-23.72 89.12,-1.93 41.79,32.13 -1.92,51.14 54.95,53.87 -0.86,-49.62 -13.48,-56.14 -41.71,-79.85z"/>
  <path class="fil0" d="M3981.23 946.06c34.48,-12.33 90.81,4.34 111.75,22.77 -18.48,40.31 -53.7,40.89 -112.09,44.32l0.34 -67.09zm144.7 12.64c-32.33,-48.21 -99.27,-49.01 -168.76,-36.75 -1.92,5.06 -4.34,0.75 -6.98,26.21l5.83 77.03c20.41,122.84 19.32,69.75 26.44,75.43 22.31,-28.04 12.52,-11.85 13.97,-56.98 130.14,-33.07 78.92,31.92 137.67,57.61 21.33,-45.22 -9.79,-57.12 -35.36,-83.67l27.2 -58.88z"/>
  <path class="fil0" d="M6590.67 1098.1c10.52,-1.46 32.21,24.64 24.08,-30.74 -5.85,-39.89 -10.81,-22.17 -7.62,-70.64 74.97,56.68 71.07,113.54 127.66,97.59l7.46 -105.36c1.09,-43.5 8.17,-59.64 -18.94,-77.14 -26.97,33.11 9.79,71.17 -21.44,133.61l-61.46 -65.99c-27.3,-46.59 -11.55,-56.5 -62.45,-62.59 -1.18,46.51 -2.07,141 12.71,181.25z"/>
  <path class="fil0" d="M1889.82 1101.88c31.03,-25.03 5.09,-52.93 6.35,-106.42 15.74,10.59 7.54,3.68 20.99,16.06 59.72,54.94 48.11,88.54 111.69,86.54 3.84,-42.36 22.83,-167.25 -16.5,-186.25 -14.36,19.68 -10.23,112.42 -11.37,140.6 -30.88,-15.95 -113.07,-129.97 -116.3,-135.57 -21.79,21.28 -17.83,-34.7 -14.33,103.03 2.71,106.48 8.58,69.67 19.46,82.01z"/>
  <path class="fil0" d="M5316.89 967.6c1.76,1.77 4.18,4.22 5.22,5.38 1.04,1.15 3.82,3.99 5.08,5.4l46.46 64.79 -99.94 -3.71 43.18 -71.86zm-50.54 100.66c234.84,-6.32 82.44,23.55 169.35,19.66 -0.38,-36.82 -89.37,-158.27 -128.92,-169.17 -24.88,28.44 -69.31,125.32 -84.74,166.69 15.28,11.91 2.61,17.71 24.42,5.43 26.58,-14.96 -21.04,18.73 9.58,-9.79 1.07,-1 4.33,-2.48 5.11,-5.89 0.81,-3.55 3.31,-4.31 5.19,-6.94z"/>
  <path class="fil0" d="M3109.28 1040.99c7.15,-16.03 12.45,-29.25 21.09,-44.99l23.12 -29.04c23.9,27.21 40.51,39.26 54.28,75.71l-98.49 -1.68zm34.1 -123.51c-44.54,52.28 -140.78,259.47 -40.45,151.47 194.1,-6.11 82.14,-6.71 165.62,26.57 5.65,-40.09 -31.72,-70.84 -51.76,-99.29 -17.73,-25.18 -38.17,-63.06 -73.41,-78.75z"/>
  <path class="fil0" d="M4583.98 963.79c21.33,32.04 37.6,32.19 56.79,77.71l-98.54 -1.88 41.75 -75.83zm-89.81 130.52c55.1,2.41 -8.45,-18.89 63.44,-26.54 31.89,-3.39 64.45,3.14 102.17,-0.74 50.79,57.77 37.3,17.09 43.03,13.32 0.4,-15.85 -92.51,-143.99 -123.91,-163.5 -11.11,9.54 -4.46,-3.89 -20.09,22.24 -19.34,32.34 -68.13,125.64 -64.65,155.22z"/>
  <path class="fil0" d="M1683.87 1040.99c6.54,-16.41 11.7,-30.46 20.36,-45.69l23.84 -28.33c25.26,31.55 38.46,36.02 53.04,75.34l-97.23 -1.33zm-45.54 57.07c45.26,-21.09 -2.9,-27.47 68.68,-30.53 36.79,-1.57 51.03,4.42 91.83,-1.76 1.93,1.92 3.95,4.91 5.37,6.17l37.66 23.59c4.85,-40.18 -96.51,-163.97 -123.91,-178.68 -7.93,6.88 -98.41,144.46 -79.64,181.22z"/>
  <path class="fil0" d="M5981.6 963.8c33.41,19.05 53,44.26 65.64,78.52l-97.76 -1.57 32.12 -76.95zm-77.13 126.68c38.54,14.97 -10.26,-14.78 58.34,-22.59 38.02,-4.32 56.71,7.27 95.88,-2.76 12.19,7.38 18.23,17.86 22.57,19.76l19.51 -0.33c1.1,-2.84 4.89,-2.7 7.24,-4.21 0.68,-15.98 -92.17,-145.57 -123.91,-163.5 -24.92,22.23 -12.84,12.11 -28,45.04 -9.02,19.6 -13.75,26.06 -25.48,44.76 -17.7,28.21 -40.59,58.22 -26.15,83.84z"/>
  <path class="fil0" d="M3810.59 968.23c33.72,25.14 41.44,32.16 56.76,74.93l-100.3 -3.91 43.54 -71.02zm-50.54 100.2c234.89,-6.68 82.39,23.37 169.36,19.49 -3.11,-33.19 -97.08,-157.32 -132.44,-170.95l-82.45 169.69c25.46,16.06 25.12,3.41 45.53,-18.23z"/>
  <path class="fil0" d="M3317.82 960.03c23.97,-33.77 72.34,-2.19 106.12,-1.28 -18.16,-54.97 -97.74,-62.44 -134.01,-5.14 6.4,87.96 50.69,45.24 118.93,70.99l1.13 41.7c-67.99,24.55 -69.96,-8.16 -125.53,-20.13l15.58 48.14c61.09,13.34 139.82,25.21 137.23,-54.43 -2.74,-84.27 -89.98,-22.32 -119.45,-79.85z"/>
  <path class="fil0" d="M2506.96 918.18c-24.14,0.19 -57.08,2.17 -75.04,5.02 -14.63,16.5 0.51,154.62 3.76,177.41 101.33,0.07 101.3,10.12 119.5,-20.31 -24.33,-19.1 -48.23,-8.87 -91.74,-7.71l-4.89 -65.73c42.29,-1.82 68.54,10.81 88.43,-17.76 -50.34,-31.98 -66.94,17.48 -89.71,-30.4 16.92,-15.9 -18.66,-7.46 28.71,-15.47 31.98,-5.4 43.31,11.28 80.6,-4.8 -7.61,-13.28 5.09,-20.76 -59.6,-20.25z"/>
  <path class="fil0" d="M2741.6 951.17c62.1,-18.78 45.25,3 101.69,7.23l-37.3 -42.83c-59.41,-2.87 -67.66,0.26 -97.37,33 -1.44,99.32 64.89,41.34 117.5,84.94 0,86.73 -107.85,18.03 -126.34,15.07 14.8,44.89 25.7,62.18 90.1,55.7 47.83,-4.82 59.78,-27.07 63.54,-74.63 -13.71,-50.85 -92.91,-35.2 -110.01,-56.14l-1.82 -22.32z"/>
  <path class="fil0" d="M4757.1 956.19c9.64,-5.78 -11.73,-5.96 24.52,-11.22 38.08,-5.53 31.88,13.78 76.57,12.5 -27.09,-57.76 -88.01,-53.23 -132.76,-8.91 0.59,85.41 50.86,54.28 117.54,77.31 -3.59,85.99 -63.45,57.8 -117.53,18.93 -13.94,74.68 82.71,63.84 128.99,48.24 1.36,-1.16 62.48,-85.08 -53.27,-106.41 -32.12,-5.92 -43.12,-7.76 -44.07,-30.44z"/>
  <path class="fil0" d="M2203.21 946.06c7.24,0 12.38,-8.74 15.19,-12.66 -40.11,-21.94 -87,-17.29 -143.04,-10.14l9.04 174.8c54.09,5.47 99.81,10.94 120.77,-17.76 -35.37,-21.88 -19.57,-7.87 -93.28,-8.97l-4.68 -63.2c47.08,-2.74 62.73,5.8 90.98,-15.27 -46.71,-44.97 -68.51,21.11 -92.21,-34.17 28.61,-26.88 54.54,-12.64 97.23,-12.64z"/>
  <path class="fil0 str0" d="M5491.34 951.16c59.04,-5 80.62,1.76 94.63,53.1 -35.5,8.61 -52.07,18.59 -97.02,15.19l2.39 -68.29zm-32.32 95.47c9.75,20.63 6.31,33.09 19.61,44.05 13.26,-10.1 -4.49,16.15 8.38,-12.81 0.94,-2.09 4.02,-11.43 5.04,-13.75l6.8 -14.13 113.8 -26.61c5.33,-113.35 -63.11,-99.25 -156.25,-106.5l2.63 129.76z"/>
  <path class="fil0" d="M6435.25 958.7c49.05,-35.94 61.9,-0.49 113.75,-18.94 -8.15,-11.78 9.36,-21.99 -69.41,-21.25 -67.04,0.62 -52.82,0.64 -73.38,12.47l8.72 162.06 33.67 7.66c0.25,0.03 30.3,0.31 31.29,0.28 47.22,-1.12 35.99,5.35 53.94,-20.68 -7.77,-4.4 -7.16,-6.77 -24.11,-9.51 -3.55,-0.58 -15.65,-0.52 -19.62,-0.65 -16.57,-0.55 -30.5,1.2 -48.72,-0.07l-3.6 -61.94c48.41,-3.35 72.58,10.18 87.2,-19.04 -29.99,-20.95 -14.04,-6.82 -45.65,-9.72 -57.55,-5.28 -27.88,7.29 -44.1,-20.68z"/>
  <path class="fil0" d="M5852.63 1032.14c-94.7,66.26 -103.2,57.03 -103.55,-84.8 40.54,4.99 66.5,10.11 94.93,27.59l8.62 57.22zm-127.6 48.16c2.25,35.4 73.05,11.98 96.87,-0.03 134.14,-67.66 25.21,-162.82 -104.49,-157.07l7.61 157.11z"/>
  <path class="fil0" d="M4204.9 958.7c21.05,-19.04 -22.41,-7.21 29.95,-15.62 36.36,-5.83 52.64,15.61 83.81,-12.17 -39.5,-5.16 -63.78,-17.46 -143.09,-7.57l7.76 178.55c50.98,-2.14 99.39,9.67 120.76,-21.58 -24.34,-19.11 -49.13,-8.89 -93.32,-7.66l-3.32 -65.78c42.11,-1.81 69.12,10.87 87.8,-17.76 -50.85,-31.37 -66.66,17.54 -90.35,-30.4z"/>
  <path class="fil0" d="M4375.5 958.7c47.95,-30.53 99.87,16.9 116.29,-34.28 -29.07,-7.04 -124.04,-9.15 -147.99,5.1 -5.49,27.27 3.45,141.44 22.81,166.01 27.13,-23.25 21.46,-20.43 12.71,-91.2 23.1,-0.74 47.07,0.38 69.06,-0.14 63.02,-1.51 27.66,-1.55 40.87,-15.09 -60.45,-41.05 -87.55,20.28 -113.74,-30.4z"/>
  <path class="fil0" d="M7025.5 918.65c-69.75,0.93 -55.44,2.68 -73.41,12.35l24.13 167.27c34.94,7.67 -16.65,-0.41 18.31,2.64 0.3,0.03 40.68,-0.43 41.82,-0.51 47.18,-3.38 28.82,4.76 44.65,-20.1 -22.96,-18.33 -56.85,-7.77 -93.45,-10.24l-3.84 -61.93c48.44,-3.36 71.87,10.1 87.81,-19.04 -36.29,-25.74 -45.44,3.55 -88.46,-20.27 10.3,-27.96 -12.08,-26.74 52.16,-26.15 36.18,0.33 28.35,8.23 59.7,-2.92 -8.02,-11.59 6.78,-13.58 -29.22,-20.51 -5.76,-1.11 -33.04,-0.7 -40.18,-0.6z"/>
  <path class="fil0" d="M2347.3 958.7c35.48,-13.33 23.65,4.36 61.93,-20.27 -15.77,-13.11 29.02,-15.39 -43.51,-14.8l-131.59 14.8c17.31,29.25 34.16,14.66 78.97,21.58 12.71,44.95 19.06,45.83 8.83,97.43 -69.47,31.33 -33.26,3.96 -75.8,-22.77 -28.29,46.86 20.73,89.05 79.83,56.7 41.05,-22.47 26.94,-85.28 21.35,-132.67z"/>
  <path class="fil0" d="M3034.16 1035.75l-8.02 -101.14 -15.94 -6.72c-0.41,30.53 5.11,47.53 5.19,72.02 0.02,6.06 -1.47,23.37 -2.82,29.02 -5.45,22.87 3.23,9.56 -12.02,20.85 -105.64,75.83 -80.25,-62.13 -94.72,-126.58 -41.11,17.86 -48.26,219.56 90.46,170.98 28.66,-10.04 34.97,-19.46 37.86,-58.43z"/>
  <path class="fil0" d="M6759.3 938.43c12.76,19.33 -6.11,19.16 63.84,16.49 3.32,43.41 6.47,123.92 22.77,152.01 28.34,-13.09 27.19,-18.22 21.52,-59.98 -4.58,-33.65 -10.67,-56.02 -12.6,-89.49 51.12,-3.17 60.92,13.03 77.7,-19.03 -18.1,-15.11 -110.52,-14.53 -140.17,-11.48 -59.61,6.12 -8.72,-2.52 -33.06,11.48z"/>
  <path class="fil0" d="M3559.72 938.43c36.9,50.94 60.3,-27.7 72.86,95.16 8.03,78.58 -10.79,34.76 16.27,71.46 15.47,-12.34 15.83,18.83 20.67,-34.13l-16.81 -109.61c51.65,-12.62 53.33,13.12 78.34,-22.87 -25.22,-19.32 -147.92,-15.97 -171.32,0z"/>
  <path class="fil0" d="M1495.55 1098.1c131.59,23.09 120.66,-23.65 125.17,-35.55 -18.74,3.5 -36.68,8.64 -55.4,8.81 -12.28,0.12 -15.87,-1.26 -27.47,-3.82 -52.52,-11.57 5.55,-113.76 -43.62,-146.86 -18.41,31.46 -15.45,135.29 1.31,177.42z"/>
  <path class="fil0" d="M5672.02 1098.06c20.27,-28.85 10.95,-45.02 8.1,-99.33 -5.08,-96.57 -1.69,-62.36 -33.49,-74.31 1.66,114.92 -13.97,157.75 25.39,173.63z"/>
  <path class="fil0 str0" d="M3000.55 1049.78c15.25,-11.29 6.57,2.02 12.02,-20.85 1.35,-5.65 2.84,-22.96 2.82,-29.02 -0.08,-24.49 -5.6,-41.49 -5.19,-72.02l15.94 6.72 8.02 101.14c3.83,-11.96 1.94,15.57 5.9,-26.1 0.23,-2.44 0.38,-28.72 0.27,-31.29 -1.33,-29.53 6.52,-37.83 -14.19,-43.74 -0.33,-2.26 -1.94,-5.69 -2.58,-6.35 -0.47,-0.48 -2.94,-3.21 -3.43,-3.62 -9.41,-7.75 -7.62,-7.01 -9.94,3.25 -5.27,7.27 -7.41,-3.23 -9.37,30.08 -0.66,11.37 1.76,18.99 2.17,30.81 0.75,22.74 -0.67,38.35 -2.44,61.01z"/>
  <path class="fil0 str0" d="M5498.85 1049.98l-6.8 14.13c-1.01,2.32 -4.1,11.66 -5.04,13.75 -12.87,28.97 4.88,2.71 -8.38,12.81 -13.3,-10.96 -9.86,-23.42 -19.61,-44.05 -1,38.78 0.43,46.09 23.74,58.07 19.42,-20.17 15.89,-13.46 16.09,-54.72z"/>
  <path class="fil0" d="M184.7 434.75c185.8,-130.66 300.82,-10.06 469.83,-69.89 109.31,-38.7 8.57,19.8 71.91,-77.05l-202.29 -64.87c-438.57,-7.07 -501.79,7.49 -515.43,346.57 -18.26,453.78 -42.74,722.19 326.61,722.19 386.49,0 813.75,96.71 751.42,-444.64 -30.52,-265.26 3.3,-93.82 -94.25,-160.29 -68.87,102.89 -23.28,-116.18 -64.66,164.46 -26.21,177.78 78,261.7 -164.78,289.34 -173.28,19.74 -435.7,19.97 -590.59,-53.06l12.2 -652.75z"/>
  <path class="fil0" d="M524.15 933.53c174.79,-150.1 814.72,-734.95 849.14,-933.53 -212.84,39.98 -322.52,228.99 -451.25,358.02 -140.45,140.79 -261.46,258.95 -392.17,393.19 -144.55,-80.69 -92.99,-125.96 -269.29,-117.25 16.16,150.45 139.57,252.77 263.56,299.56z"/>
 </g>
</svg>
