<?xml version="1.0" encoding="UTF-8"?>
<!DOCTYPE svg PUBLIC "-//W3C//DTD SVG 1.1//EN" "http://www.w3.org/Graphics/SVG/1.1/DTD/svg11.dtd">
<!-- Creator: CorelDRAW -->
<svg xmlns="http://www.w3.org/2000/svg" xml:space="preserve" width="96.1014mm" height="32.8442mm" version="1.1" style="shape-rendering:geometricPrecision; text-rendering:geometricPrecision; image-rendering:optimizeQuality; fill-rule:evenodd; clip-rule:evenodd"
viewBox="0 0 11493.98 3928.25"
 xmlns:xlink="http://www.w3.org/1999/xlink"
 xmlns:xodm="http://www.corel.com/coreldraw/odm/2003">
 <defs>
  <style type="text/css">
   <![CDATA[
    .fil0 {fill:#1C4ED8}
   ]]>
  </style>
 </defs>
 <g id="Camada_x0020_1">
  <metadata id="CorelCorpID_0Corel-Layer"/>
  <path class="fil0" d="M5283.35 2005.74l-331.92 14.66c-4.08,-19.06 -9.82,-40.2 -11.1,-36.02 -1.28,4.2 -8.16,-18.77 -9.7,-25.95 -34.86,-163.35 6.88,93.67 -11.61,-58.1 -0.69,-5.72 -1.7,-160.54 -1.27,-163.6 18.86,-135.68 45.31,-117.26 203.5,-118.04 142.2,-0.69 173.18,-21.98 197.34,87.62 14.41,65.39 8.1,220.56 -35.25,299.44zm-585.44 -351.88c37.88,44.53 15.45,-18.67 34.03,60.42 4.95,21.07 8.74,66.92 9.47,88.76 5.04,150.16 -15.11,142.91 -24.77,170.55 -20.42,58.41 -190.37,57.71 -262.34,50.47 -134.28,-13.5 -119.11,-43.92 -119.87,-187.82 -0.63,-122.31 -15.92,-191.15 92.57,-213.37 86.62,-17.75 221.16,-5.13 270.9,30.99zm1404.41 -637c447.98,-59.83 404.23,-26.59 375.8,387.24l-389.34 -11.46 13.54 -375.78zm-1166.83 -10.09l376.84 17.88 -5.35 376.33 -383.76 -12.35 12.26 -381.86zm582.94 15.36c228.94,-27.87 382.06,-63.37 382.06,85.72 0,268.47 82.37,364.46 -389.57,273.04l7.51 -358.76zm-1168.54 18.51c138.72,-76.22 285.95,-24.14 379.3,-0.45l-4.03 332.3c-47.48,23.13 49.11,-3.32 -77.81,28.87 -100.26,25.43 -216.72,-2.21 -305.55,-32.44l8.1 -328.29zm1489.81 995.76c-102.1,-6.92 -456.25,98.23 -339.16,-325.32 42.55,-153.96 367.46,-124.27 399.44,-25.56 15.27,47.16 1.87,47.59 5,86.13 18.99,233.7 -23.69,100.54 69.63,163.66 81.09,-79.52 108.97,-256.92 268.66,-401.52 183.89,-166.52 164.25,-17.96 320.02,-217.62 71.19,-91.23 -38.51,-16.16 77.07,-77.78 181.03,10.24 94.35,36.78 180.66,132.26 49.06,54.28 121.18,70.64 199.09,93.25l0.23 -676.48 -3101.93 -0.14c0,299.27 -64.82,1340.15 63.41,1515.59 181.96,70.88 1716.86,31.86 2049.61,31.5 -37.08,-301.4 -149.1,-0.93 -191.73,-297.98z"/>
  <path class="fil0" d="M3918.41 443.2l0 253.31 3101.74 -0.14c0,-324.1 88.53,-559.43 -443.09,-482.62l-51.56 15.21c-1.39,127.48 11.7,116.54 -43.57,206.27l-225.12 13.91c-49.77,-105.33 -46.06,-93.52 -47.6,-235.39l-1467.8 0c-14.17,148.99 -10.74,123.76 -59.56,225.39l-225.04 8.68c-33.96,-70.86 -44.42,-116.82 -47.29,-214.71 -82.53,-34.62 -180.54,-19.36 -269.44,-19.36 -172.92,0 -221.66,58.56 -221.66,229.46z"/>
  <path class="fil0" d="M394.13 3436.91c92.35,146.26 167.44,328.55 285.49,447.11 294.34,-363.83 279.95,-634.62 278,-1077.15 -54.31,103.91 -178.26,374.2 -228.29,475.35l-103.37 -115.09c-233.94,-340.52 -64.93,-395.82 -600.81,-354.93 93.68,208.91 242.15,428.84 368.97,624.72zm-351.66 -430.88c-68.45,-103.32 -34.23,-202.03 -31.65,910.22l351.82 4.95c-0.17,-182.67 22.26,-421.9 -96.08,-581.33 -66.31,-136.91 -148.59,-219.76 -224.1,-333.85z"/>
  <path class="fil0" d="M10093.33 3050.92c51.27,-91.97 69.2,-41.1 59.36,-249.95l-583.95 5.81c-24.33,460.72 107.51,-22.62 107.04,544.17 -0.17,195.06 12.01,204.03 -46.9,313.63 -66.25,123.25 -6.4,-72.47 -54.77,96.88 -16.74,58.62 -10.26,93.05 -10.51,155.72l594.05 3.8c-1.18,-328.81 -27.01,-160.1 -82.91,-282.93 -38.63,-84.87 -28.81,-174.13 -28.76,-287.19 0.1,-177.22 -15.3,-187.63 47.34,-299.95z"/>
  <path class="fil0" d="M7051.79 1992.01c-110.26,169.97 -39,316.11 -279.57,390.96 -396.52,123.37 -594.99,-424.19 -285.98,-605.87 263.17,-154.73 329.56,74.8 458.78,-36.28 -111.04,-123.21 -146.58,-38.67 -217.64,-158.25 0,-121.79 12.45,-184.76 -35.45,-269.15 -112.24,46.15 -71.43,163.4 -71.3,320.37 -321.4,86.22 -327.16,254.49 -403.58,376.07 -130.76,0 -214.82,-19.82 -300.87,35.62 97.88,160.7 139.54,29.1 281.08,71.19 167,108.99 22.83,282.7 418.44,372.05l28.6 320.27c113.41,-37.87 83.24,-64.2 83.08,-320.51 400.72,-85.32 263.9,-262.37 419.36,-371.81 37.04,0.05 158.38,4.77 186.53,-2.4 148.8,-37.96 53.49,0.04 95.73,-85.91l-377.21 -36.34z"/>
  <path class="fil0" d="M8779.62 3028.01l226.85 -5.86 24.12 679.02 -263.46 8.42 -19.33 208.31 450.53 -6.11c98.06,-105.56 181.14,-125.57 204.96,-281.92 7.95,-52.23 7.83,-462.13 0.83,-517.69 -34.24,-271.47 -324,-379.51 -638.14,-293.36l13.63 209.18z"/>
  <path class="fil0" d="M5846.22 3028.34l207.16 0.62c77.12,88.22 52.41,162.32 50.74,322.34 -1.23,117.55 0.94,226.28 -6.71,349.87l-263.47 8.42 -19.42 208.62 450.65 -6.42c157.82,-169.85 284.56,-227.07 205.43,-798.68 -43.8,-316.37 -386.76,-364.61 -637.71,-293.92l13.34 209.15z"/>
  <polygon class="fil0" points="1570.61,3921.18 1943.06,3916.52 1943,3460.25 2289.73,3457.95 2295.6,3247.56 1942.96,3247.56 1942.96,2801.56 1581.39,2801.56 "/>
  <path class="fil0" d="M4395.36 2803.88l-365.74 3.3 276.95 742.42c-201.59,101.32 -167.47,-97.07 -252.55,242.61 670.73,31.52 190.98,96.27 545.29,131.42 47.1,4.68 173.78,-2.58 234.85,-5.66l-438.8 -1114.1z"/>
  <path class="fil0" d="M11059.34 2801.74l-363.57 4.69 272.53 743.17c-213.93,102.7 -167.18,-98.43 -250.08,237.76 75.54,7.44 167.35,1.11 227.32,8.65 250.24,31.41 90.89,119.59 353.89,128.37 70.33,2.34 124.15,-8.36 194.55,-19.77l-434.64 -1102.87z"/>
  <path class="fil0" d="M7626.21 3797.26c108.31,-124.73 162.44,-704.71 -34.66,-897.28 -127.23,-124.29 -165.79,-112.74 -396.17,-88.31 -9.03,168.11 -21.03,158.6 86.27,236.11l52.36 26.18c0,1193.48 -143.02,222.15 -143.83,837.12 224.55,22.33 330.67,7.5 436.04,-113.81z"/>
  <path class="fil0" d="M6991.82 3073.95c148.4,-118.73 138.09,3.01 138.55,-268.44 -225.71,-5.84 -514.87,47.37 -514.89,347.71 -0.04,458.19 -91.23,826.27 515.08,752.87 -0.84,-606.72 -138.92,366.52 -138.74,-832.15z"/>
  <polygon class="fil0" points="1001.52,3918.86 1373.24,3921.18 1374.23,2955 1368.27,2800.54 1002.72,2806.57 "/>
  <polygon class="fil0" points="8309.19,3912.51 8694.64,3908.24 8679.14,2800.48 8327.82,2801.64 "/>
  <polygon class="fil0" points="5378.61,3917.91 5761.46,3908.24 5746.07,2800.27 5396.88,2819.19 "/>
  <polygon class="fil0" points="3008.94,3928.25 3396.82,3915.79 3380.93,3095.61 3011.95,3116.8 "/>
  <path class="fil0" d="M3954.38 3921.05c87.56,-411.8 244.1,-577.14 41.36,-1058.95l-397.79 1059.13 356.43 -0.18z"/>
  <path class="fil0" d="M10613.51 3920.99c157.83,-601.22 273.11,-395.13 28.93,-1050.76l-386.62 1050.76 357.68 0z"/>
  <polygon class="fil0" points="2706.62,3020.84 3669.38,3031.42 3683.29,2806.51 2716.17,2803.1 "/>
  <path class="fil0" d="M6569.09 2160.24c-68.9,-231.38 36.13,-169.45 205.91,-324.47 -239.43,-131.84 -457.11,155.87 -323.07,378.3 105.98,175.91 413.45,156.69 481.19,-137.04 -186.19,63.52 -163.72,147.96 -364.02,83.21z"/>
  <path class="fil0" d="M7435.74 1479.71c-165.22,65.33 -104.63,82.41 -202.52,189.26 -78.73,85.93 -548.81,271.31 -608.84,404.32 89.88,60.45 86.46,25.04 207.01,-44.78 675.14,-391.08 317.98,-155.88 734.79,-315.38l-184.67 -52.7 54.23 -180.72z"/>
  <path class="fil0" d="M2002.49 3914.9l584.77 6.28 -0.18 -337.04c-144.85,0.08 -227.09,-25.04 -337.84,30.68l-66.69 50.16c-6.78,4.09 -16.39,10.5 -23.36,14.29 -141.65,76.93 -39.94,-31.36 -156.64,68.51l-0.06 167.12z"/>
  <path class="fil0" d="M2004.38 2994.67c85.8,37.85 55.26,6.9 105.84,23.69 8.96,2.98 20.98,5.73 30.43,9.39 233.95,90.99 32.57,100.68 446.44,100.68l-2.48 -327.15 -577.3 4.77 -2.93 188.61z"/>
  <path class="fil0" d="M6086.35 1915.04c140.57,18.62 154.45,-146.01 226.1,-217.28 99.19,-98.67 205.38,-53.46 229.19,-214.09 -284.15,59.01 -350.04,189.21 -455.29,431.37z"/>
  <path class="fil0" d="M6318.86 2440.98c-100.18,-84.07 -85.74,-194.57 -184.89,-249.16 -45.98,35.58 -41.88,-59.99 -28.53,79.8 16.88,176.37 292.58,325.59 428.03,375.09 6.51,-163.96 -85.04,-97 -214.61,-205.73z"/>
  <path class="fil0" d="M6810.54 2646.71c244.64,-84.86 369.89,-197.68 451.21,-451.03 -174.3,-1.11 -85.59,91.99 -223.13,228.23 -122.74,121.58 -232.73,59.39 -228.08,222.81z"/>
  <path class="fil0" d="M6387.16 364.09c75.25,-100.01 50.89,-197.93 43.58,-363.99l-118.81 0c-64.63,344.71 -7.81,339.72 75.23,363.99z"/>
  <path class="fil0" d="M4583.16 364.07c49.83,-36.57 62.18,32.26 59,-207.37 -2.27,-171.75 15.81,-146.11 -134.24,-156.7 -18.56,426.18 -18.41,322.03 75.24,364.07z"/>
  <polygon class="fil0" points="4635.43,1722.48 4438.54,1722.8 4454.22,1909.31 4635.94,1915.77 "/>
  <polygon class="fil0" points="4443.77,1297.82 4630.63,1297.84 4625.71,1111.59 4448.64,1111.69 "/>
  <polygon class="fil0" points="5026.13,1914.87 5212.32,1912.39 5212.28,1736.87 5026.19,1727.18 "/>
  <polygon class="fil0" points="5025.29,1297.82 5212.32,1295.46 5209.9,1115.51 5030.11,1110.9 "/>
  <polygon class="fil0" points="6192.46,1297.71 6379.35,1292.92 6376.92,1119.58 6197.33,1110.18 "/>
  <polygon class="fil0" points="5805.56,1909.47 5805.03,1735.64 5617.18,1735.64 5617.18,1909.47 "/>
  <polygon class="fil0" points="5611.17,1288.86 5794.59,1297.71 5789.65,1109.33 5611.6,1123.51 "/>
  <path class="fil0" d="M6969.46 1535.78c-58.2,-31.16 -96.91,-41.01 -166.89,-52.11 24.22,131.73 -25.39,53.71 113.98,137.4 80.1,48.09 69.18,51.79 186.46,64.43 -28.09,-69.63 -34.79,-96.85 -133.55,-149.72z"/>
 </g>
</svg>
